<?xml version="1.0" encoding="utf-8"?>
<!-- Generator: Adobe Illustrator 22.1.0, SVG Export Plug-In . SVG Version: 6.00 Build 0)  -->
<svg version="1.1" id="Calque_1" xmlns="http://www.w3.org/2000/svg" xmlns:xlink="http://www.w3.org/1999/xlink" x="0px" y="0px"
	 viewBox="0 0 354.3 175.3" style="enable-background:new 0 0 354.3 175.3;" xml:space="preserve">
<style type="text/css">
	.st0{fill:#FFFFFF;}
	.st1{fill:#EDD200;}
</style>
<g>
	<g>
		<g>
			<g>
				<path class="st0" d="M4.4,115.2c-1.2,0-2.4-0.4-3.2-1.2C0,112.8,0,111.7,0,109.1c0-2.5,0-3.7,1.2-4.8c0.9-0.8,2-1.2,3.2-1.2
					c2.3,0,4,1.3,4.4,3.5H7.5c-0.3-1.4-1.4-2.4-3-2.4c-0.8,0-1.6,0.3-2.2,0.8c-0.8,0.8-0.9,1.6-0.9,4.1c0,2.5,0.1,3.3,0.9,4.1
					c0.6,0.5,1.4,0.8,2.2,0.8c1.6,0,2.7-1,3.1-2.4h1.4C8.4,113.9,6.7,115.2,4.4,115.2z"/>
				<path class="st0" d="M13.9,115.1l0-11.9h7.9v1.1h-6.5v4.2h5.6v1.1h-5.6v4.3l6.5,0v1.1L13.9,115.1z"/>
				<path class="st0" d="M34.7,115.1l-6.7-9.5l0,9.5h-1.4l0-11.9h1.3l6.7,9.5l0-9.5H36l0,11.9H34.7z"/>
				<path class="st0" d="M45.5,104.3v10.8h-1.4v-10.8h-3.7v-1.1h8.7v1.1H45.5z"/>
				<path class="st0" d="M60.8,115.1l-2.9-5.3h-3v5.3h-1.4l0-11.9h4.9c2.2,0,3.8,1.3,3.8,3.3c0,1.7-1.1,2.9-2.8,3.2l3,5.4H60.8z
					 M58.3,104.3h-3.4v4.4h3.4c1.5,0,2.5-0.7,2.5-2.2C60.8,105.1,59.8,104.3,58.3,104.3z"/>
				<path class="st0" d="M67.3,115.1v-11.9l7.9,0v1.1h-6.5v4.2h5.6v1.1h-5.6v4.3h6.5v1.1H67.3z"/>
				<path class="st0" d="M94.1,114c-0.8,0.7-1.9,1.1-3.2,1.1h-4.4v-11.9h4.4c1.3,0,2.4,0.4,3.2,1.1c1.3,1.2,1.2,3.1,1.2,4.7
					S95.4,112.7,94.1,114z M93.1,105.2c-0.7-0.6-1.5-0.9-2.5-0.9h-2.8v9.6h2.8c1,0,1.8-0.2,2.5-0.9c0.9-0.8,0.8-2.6,0.8-4.1
					C94,107.5,94,106,93.1,105.2z"/>
				<path class="st0" d="M100.6,115.1l0-11.9h7.9v1.1h-6.5v4.2l5.6,0v1.1h-5.6v4.3h6.5v1.1L100.6,115.1z"/>
				<path class="st0" d="M121.2,104.3v4.4h5.6v1.1h-5.6v5.2h-1.4v-11.9h7.9v1.1H121.2z"/>
				<path class="st0" d="M139,114c-0.9,0.8-2,1.2-3.2,1.2c-1.3,0-2.4-0.4-3.2-1.2c-1.2-1.1-1.2-2.3-1.2-4.8c0-2.5,0-3.7,1.2-4.8
					c0.9-0.8,2-1.2,3.2-1.2c1.3,0,2.4,0.4,3.2,1.2c1.2,1.1,1.2,2.3,1.2,4.8C140.2,111.7,140.2,112.8,139,114z M138,105.1
					c-0.6-0.5-1.4-0.9-2.2-0.9c-0.8,0-1.6,0.3-2.2,0.9c-0.8,0.8-0.9,1.6-0.9,4.1c0,2.5,0.1,3.3,0.9,4.1c0.5,0.5,1.4,0.9,2.2,0.9
					c0.8,0,1.6-0.3,2.2-0.9c0.8-0.8,0.9-1.6,0.9-4.1C138.9,106.6,138.8,105.8,138,105.1z"/>
				<path class="st0" d="M152.8,115.1l-2.9-5.3l-3,0v5.3h-1.4v-11.9l4.9,0c2.2,0,3.8,1.3,3.8,3.3c0,1.7-1.1,2.9-2.8,3.2l3,5.4H152.8
					z M150.2,104.3h-3.4v4.4h3.4c1.5,0,2.5-0.7,2.5-2.2C152.8,105.1,151.7,104.3,150.2,104.3z"/>
				<path class="st0" d="M168.7,115.1v-9l-3.5,7.2h-1.2l-3.5-7.2v9h-1.4v-11.9h1.4l4.1,8.4l4-8.4h1.4v11.9H168.7z"/>
				<path class="st0" d="M183.2,115.1l-1-2.7h-5.5l-1,2.7h-1.4l4.7-11.9h1.1l4.6,11.9H183.2z M179.5,105l-2.4,6.3h4.7L179.5,105z"/>
				<path class="st0" d="M191.4,104.3v10.8h-1.4v-10.8h-3.7v-1.1l8.7,0v1.1H191.4z"/>
				<path class="st0" d="M199.5,115.1v-11.9h1.4v11.9H199.5z"/>
				<path class="st0" d="M213.8,114c-0.9,0.8-2,1.2-3.2,1.2s-2.4-0.4-3.2-1.2c-1.2-1.1-1.2-2.3-1.2-4.8c0-2.5,0-3.7,1.2-4.8
					c0.9-0.8,2-1.2,3.2-1.2s2.4,0.4,3.2,1.2c1.2,1.1,1.2,2.3,1.2,4.8C215,111.7,215,112.8,213.8,114z M212.7,105.1
					c-0.6-0.5-1.4-0.9-2.2-0.9c-0.8,0-1.6,0.3-2.2,0.9c-0.8,0.8-0.9,1.6-0.9,4.1c0,2.5,0.1,3.3,0.9,4.1c0.6,0.5,1.4,0.9,2.2,0.9
					c0.8,0,1.6-0.3,2.2-0.9c0.8-0.8,0.9-1.6,0.9-4.1C213.6,106.6,213.5,105.8,212.7,105.1z"/>
				<path class="st0" d="M228.3,115.1l-6.7-9.5v9.5h-1.4l0-11.9h1.3l6.7,9.5v-9.5h1.4v11.9H228.3z"/>
			</g>
			<g>
				<path class="st0" d="M47.7,135.8h-3.4v4.9H43v-11.9h4.7c2.3,0,3.9,1.4,3.9,3.5C51.6,134.4,50,135.8,47.7,135.8z M47.6,129.9
					h-3.2v4.7h3.2c1.6,0,2.7-0.8,2.7-2.4C50.3,130.7,49.1,129.9,47.6,129.9z"/>
				<path class="st0" d="M63.5,140.7l-2.9-5.3h-3v5.3h-1.4v-11.9h4.9c2.2,0,3.8,1.3,3.8,3.3c0,1.7-1.1,2.9-2.8,3.2l3,5.4H63.5z
					 M61,129.9h-3.4v4.4H61c1.5,0,2.5-0.7,2.5-2.2C63.5,130.6,62.5,129.9,61,129.9z"/>
				<path class="st0" d="M77.2,139.5c-0.9,0.8-2,1.2-3.2,1.2c-1.3,0-2.4-0.4-3.2-1.2c-1.2-1.1-1.2-2.3-1.2-4.8c0-2.5,0-3.7,1.2-4.8
					c0.9-0.8,2-1.2,3.2-1.2c1.3,0,2.4,0.4,3.2,1.2c1.2,1.1,1.2,2.3,1.2,4.8C78.4,137.2,78.4,138.4,77.2,139.5z M76.1,130.6
					c-0.6-0.5-1.4-0.8-2.2-0.8c-0.8,0-1.6,0.3-2.2,0.8c-0.8,0.8-0.9,1.6-0.9,4.1c0,2.5,0.1,3.3,0.9,4.1c0.6,0.5,1.4,0.9,2.2,0.9
					c0.8,0,1.6-0.3,2.2-0.9c0.8-0.8,0.9-1.6,0.9-4.1C77,132.2,76.9,131.4,76.1,130.6z"/>
				<path class="st0" d="M85,129.9l0,4.4h5.6v1.1H85v5.3h-1.4v-11.9h7.9v1.1H85z"/>
				<path class="st0" d="M96,140.7v-11.9h7.9v1.1h-6.5v4.2h5.6v1.1h-5.6l0,4.3h6.5v1.1H96z"/>
				<path class="st0" d="M112,140.7c-1.9,0-3.2-0.4-4.3-1.6l0.9-0.9c1,1,2,1.3,3.5,1.3c1.9,0,3-0.8,3-2.2c0-0.6-0.2-1.2-0.6-1.5
					c-0.4-0.3-0.7-0.4-1.7-0.6l-1.5-0.2c-1-0.2-1.8-0.5-2.3-0.9c-0.6-0.5-1-1.3-1-2.2c0-2,1.6-3.4,4.1-3.4c1.6,0,2.7,0.4,3.8,1.3
					l-0.9,0.8c-0.8-0.7-1.6-1-3-1c-1.7,0-2.7,0.9-2.7,2.2c0,0.6,0.2,1.1,0.6,1.4c0.4,0.3,1.1,0.6,1.7,0.6l1.4,0.2
					c1.2,0.2,1.8,0.4,2.3,0.8c0.7,0.6,1.1,1.4,1.1,2.4C116.4,139.5,114.7,140.7,112,140.7z"/>
				<path class="st0" d="M124.3,140.7c-1.9,0-3.2-0.4-4.3-1.6l0.9-0.9c1.1,1,2,1.3,3.5,1.3c1.9,0,3-0.8,3-2.2c0-0.6-0.2-1.2-0.6-1.5
					c-0.4-0.3-0.7-0.4-1.7-0.6l-1.5-0.2c-1-0.2-1.8-0.5-2.3-0.9c-0.6-0.5-1-1.3-1-2.2c0-2,1.6-3.4,4.1-3.4c1.6,0,2.7,0.4,3.8,1.3
					l-0.9,0.8c-0.8-0.7-1.6-1-3-1c-1.7,0-2.7,0.9-2.7,2.2c0,0.6,0.2,1.1,0.6,1.4c0.4,0.3,1.1,0.6,1.7,0.6l1.4,0.2
					c1.2,0.2,1.8,0.4,2.3,0.8c0.7,0.6,1.1,1.4,1.1,2.4C128.7,139.5,126.9,140.7,124.3,140.7z"/>
				<path class="st0" d="M133.5,140.7v-11.9l1.4,0l0,11.9H133.5z"/>
				<path class="st0" d="M147.8,139.5c-0.9,0.8-2,1.2-3.2,1.2c-1.3,0-2.4-0.4-3.2-1.2c-1.2-1.1-1.2-2.3-1.2-4.8c0-2.5,0-3.7,1.2-4.8
					c0.9-0.8,2-1.2,3.2-1.2c1.3,0,2.4,0.4,3.2,1.2c1.2,1.1,1.2,2.3,1.2,4.8C149,137.2,149,138.4,147.8,139.5z M146.8,130.6
					c-0.6-0.5-1.4-0.8-2.2-0.8c-0.8,0-1.6,0.3-2.2,0.8c-0.8,0.8-0.9,1.6-0.9,4.1c0,2.5,0.1,3.3,0.9,4.1c0.6,0.5,1.4,0.9,2.2,0.9
					c0.8,0,1.6-0.3,2.2-0.9c0.8-0.8,0.9-1.6,0.9-4.1C147.7,132.2,147.6,131.4,146.8,130.6z"/>
				<path class="st0" d="M162.3,140.7l-6.7-9.5v9.5h-1.4v-11.9h1.3l6.7,9.5v-9.5h1.4v11.9H162.3z"/>
				<path class="st0" d="M177.4,140.7l-6.7-9.5l0,9.5h-1.4l0-11.9h1.3l6.7,9.5v-9.5h1.4v11.9H177.4z"/>
				<path class="st0" d="M184.4,140.7v-11.9h7.9v1.1h-6.5v4.2h5.6v1.1h-5.6v4.3h6.5v1.1H184.4z"/>
				<path class="st0" d="M197.2,140.7v-11.9h1.4l0,10.8l6.5,0v1.1H197.2z"/>
				<path class="st0" d="M209.5,140.7l0-11.9h1.4v10.8h6.5v1.1H209.5z"/>
				<path class="st0" d="M221.7,140.7v-11.9h7.9v1.1h-6.5v4.2h5.6v1.1h-5.6v4.3h6.5v1.1H221.7z"/>
			</g>
			<g>
				<path class="st0" d="M15.8,175.1V163l-4.2,7.9H8.6L4.3,163l0,12.1H0l0-20.8h4.3l5.8,11.2l5.8-11.2h4.3v20.8H15.8z"/>
				<path class="st0" d="M38.8,175.1l-1.3-3.7h-7.9l-1.3,3.7h-4.5l8.1-20.8h3.4l8.1,20.8H38.8z M33.6,160.4l-2.8,7.6h5.5L33.6,160.4
					z"/>
				<path class="st0" d="M58.7,175.1l-4.3-8.3h-3.1v8.3l-4.3,0v-20.8h8.7c4.5,0,7.2,2.9,7.2,6.4c0,2.9-1.9,4.7-4.1,5.5l5,9H58.7z
					 M55.3,157.9h-4.1v5.5h4.1c1.9,0,3.1-1.1,3.1-2.7C58.5,159.1,57.2,157.9,55.3,157.9z"/>
				<path class="st0" d="M68.5,175.1v-20.8h4.3v20.8H68.5z"/>
				<path class="st0" d="M79.3,175.1v-20.8l14.6,0v3.6H83.6v4.9h8.8l0,3.6h-8.8v5.1h10.3l0,3.6H79.3z"/>
				<path class="st0" d="M98.7,168.5V165h9.6v3.5H98.7z"/>
				<path class="st0" d="M125.7,175.1l-4.3-8.3h-3.1v8.3h-4.3v-20.8h8.7c4.5,0,7.2,2.9,7.2,6.4c0,2.9-1.9,4.7-4.1,5.5l5,9H125.7z
					 M122.3,157.9h-4.1v5.5h4.1c1.9,0,3.1-1.1,3.1-2.7C125.5,159.1,124.2,157.9,122.3,157.9z"/>
				<path class="st0" d="M149,173c-1.6,1.5-3.5,2.3-6,2.3c-2.5,0-4.5-0.8-6-2.3c-2.2-2.1-2.2-4.7-2.2-8.3c0-3.6-0.1-6.2,2.2-8.3
					c1.6-1.5,3.5-2.3,6-2.3c2.5,0,4.4,0.8,6,2.3c2.2,2.1,2.2,4.7,2.2,8.3C151.2,168.3,151.2,170.9,149,173z M145.8,158.8
					c-0.6-0.7-1.6-1.1-2.8-1.1c-1.2,0-2.2,0.4-2.8,1.1c-0.8,0.9-1.1,1.8-1.1,5.8c0,4,0.2,5,1.1,5.8c0.6,0.7,1.6,1.1,2.8,1.1
					c1.2,0,2.1-0.4,2.8-1.1c0.8-0.9,1.1-1.8,1.1-5.8C146.9,160.7,146.6,159.7,145.8,158.8z"/>
				<path class="st0" d="M156.9,175.1v-20.8l4.3,0v17.2h10.1v3.6H156.9z"/>
				<path class="st0" d="M176.1,175.1v-20.8h4.3v17.2h10.1v3.6H176.1z"/>
				<path class="st0" d="M195.2,175.1v-20.8h14.6v3.6h-10.3v4.9h8.8v3.6h-8.8v5.1h10.3v3.6H195.2z"/>
				<path class="st0" d="M223.8,157.9v17.2h-4.3v-17.2h-5.8v-3.6h15.9v3.6H223.8z"/>
			</g>
		</g>
		<g>
			<polygon class="st0" points="98.8,0 79.2,19.7 79.2,78.1 116.8,78.1 116.8,25.1 154.4,25.1 154.4,78.1 192,78.1 192,25.1 
				229.6,25.1 229.6,0 			"/>
			<polyline class="st0" points="304.8,78.1 267.2,78.1 267.2,103.2 304.8,140.7 354.3,140.7 316.8,103.2 342.4,103.2 342.4,19.7 
				322.8,0 267.2,0 267.2,25.1 304.8,25.1 304.8,78.1 			"/>
			<rect x="229.6" y="25" class="st1" width="37.6" height="53.1"/>
		</g>
	</g>
</g>
</svg>
